<svg width="200" height="75" viewBox="0 0 200 75" fill="none" xmlns="http://www.w3.org/2000/svg">
<path d="M61.048 45.056H68.568V48H57.4V25.76H61.048V45.056ZM81.7628 48.224C79.6934 48.224 77.7841 47.744 76.0348 46.784C74.3068 45.8027 72.9308 44.448 71.9068 42.72C70.9041 40.9707 70.4028 39.008 70.4028 36.832C70.4028 34.656 70.9041 32.704 71.9068 30.976C72.9308 29.248 74.3068 27.904 76.0348 26.944C77.7841 25.9627 79.6934 25.472 81.7628 25.472C83.8534 25.472 85.7628 25.9627 87.4908 26.944C89.2401 27.904 90.6161 29.248 91.6188 30.976C92.6214 32.704 93.1228 34.656 93.1228 36.832C93.1228 39.008 92.6214 40.9707 91.6188 42.72C90.6161 44.448 89.2401 45.8027 87.4908 46.784C85.7628 47.744 83.8534 48.224 81.7628 48.224ZM81.7628 45.056C83.2348 45.056 84.5468 44.7253 85.6988 44.064C86.8508 43.3813 87.7468 42.4213 88.3868 41.184C89.0481 39.9253 89.3788 38.4747 89.3788 36.832C89.3788 35.1893 89.0481 33.7493 88.3868 32.512C87.7468 31.2747 86.8508 30.3253 85.6988 29.664C84.5468 29.0027 83.2348 28.672 81.7628 28.672C80.2908 28.672 78.9788 29.0027 77.8268 29.664C76.6748 30.3253 75.7681 31.2747 75.1068 32.512C74.4668 33.7493 74.1468 35.1893 74.1468 36.832C74.1468 38.4747 74.4668 39.9253 75.1068 41.184C75.7681 42.4213 76.6748 43.3813 77.8268 44.064C78.9788 44.7253 80.2908 45.056 81.7628 45.056ZM112.809 32.16C112.233 31.0507 111.433 30.2187 110.409 29.664C109.385 29.088 108.201 28.8 106.857 28.8C105.385 28.8 104.073 29.1307 102.921 29.792C101.769 30.4533 100.862 31.392 100.201 32.608C99.5605 33.824 99.2405 35.232 99.2405 36.832C99.2405 38.432 99.5605 39.8507 100.201 41.088C100.862 42.304 101.769 43.2427 102.921 43.904C104.073 44.5653 105.385 44.896 106.857 44.896C108.841 44.896 110.451 44.3413 111.689 43.232C112.926 42.1227 113.683 40.6187 113.961 38.72H105.609V35.808H117.865V38.656C117.63 40.384 117.011 41.9733 116.009 43.424C115.027 44.8747 113.737 46.0373 112.137 46.912C110.558 47.7653 108.798 48.192 106.857 48.192C104.766 48.192 102.857 47.712 101.129 46.752C99.4005 45.7707 98.0245 44.416 97.0005 42.688C95.9978 40.96 95.4965 39.008 95.4965 36.832C95.4965 34.656 95.9978 32.704 97.0005 30.976C98.0245 29.248 99.4005 27.904 101.129 26.944C102.878 25.9627 104.787 25.472 106.857 25.472C109.225 25.472 111.326 26.0587 113.161 27.232C115.017 28.384 116.361 30.0267 117.193 32.16H112.809ZM131.607 48.224C129.537 48.224 127.628 47.744 125.879 46.784C124.151 45.8027 122.775 44.448 121.751 42.72C120.748 40.9707 120.247 39.008 120.247 36.832C120.247 34.656 120.748 32.704 121.751 30.976C122.775 29.248 124.151 27.904 125.879 26.944C127.628 25.9627 129.537 25.472 131.607 25.472C133.697 25.472 135.607 25.9627 137.335 26.944C139.084 27.904 140.46 29.248 141.463 30.976C142.465 32.704 142.967 34.656 142.967 36.832C142.967 39.008 142.465 40.9707 141.463 42.72C140.46 44.448 139.084 45.8027 137.335 46.784C135.607 47.744 133.697 48.224 131.607 48.224ZM131.607 45.056C133.079 45.056 134.391 44.7253 135.543 44.064C136.695 43.3813 137.591 42.4213 138.231 41.184C138.892 39.9253 139.223 38.4747 139.223 36.832C139.223 35.1893 138.892 33.7493 138.231 32.512C137.591 31.2747 136.695 30.3253 135.543 29.664C134.391 29.0027 133.079 28.672 131.607 28.672C130.135 28.672 128.823 29.0027 127.671 29.664C126.519 30.3253 125.612 31.2747 124.951 32.512C124.311 33.7493 123.991 35.1893 123.991 36.832C123.991 38.4747 124.311 39.9253 124.951 41.184C125.612 42.4213 126.519 43.3813 127.671 44.064C128.823 44.7253 130.135 45.056 131.607 45.056Z" fill="white"/>
</svg>
