<svg xmlns="http://www.w3.org/2000/svg" viewBox="0 0 154.63 154.63"><defs><style>.cls-1{fill:#ff6700;}.cls-2{fill:#e5e5e5;}</style></defs><g id="Layer_2" data-name="Layer 2"><g id="Capa_1" data-name="Capa 1"><rect class="cls-1" x="58.58" y="50.83" width="78.37" height="12.06" rx="3.07" transform="translate(68.84 -52.48) rotate(45)"/><path class="cls-1" d="M151.13,58.92l-8.53,8.52a6.13,6.13,0,0,1-8.63,0A6,6,0,0,1,134,59l.08-.07a12,12,0,0,0,0-16.9L112.61,20.55a11.94,11.94,0,0,0-16.9,0h0a6.09,6.09,0,0,1-8.63,0,6,6,0,0,1,0-8.49l8.6-8.6a11.94,11.94,0,0,1,16.9,0L151.13,42A12,12,0,0,1,151.13,58.92Z"/><path class="cls-1" d="M41.36,135l16-33.7a2.2,2.2,0,0,0-2.93-2.93l-33.7,16A.94.94,0,0,1,19.46,113L53.84,49.2a6.06,6.06,0,0,1,8.22-2.47h0A6.07,6.07,0,0,1,64.53,55L47.65,86.29a.92.92,0,0,0,1.2,1.26L75.91,74.73a3.79,3.79,0,0,1,5,5L68.13,106.83a.92.92,0,0,0,1.26,1.2l31.34-16.88A6.07,6.07,0,0,1,109,93.62h0a6.06,6.06,0,0,1-2.47,8.22L42.65,136.22A.94.94,0,0,1,41.36,135Z"/><path class="cls-2" d="M11.64,125.65,29,143a1.74,1.74,0,0,1-.68,2.88l-26,8.67a1.74,1.74,0,0,1-2.2-2.2l8.67-26A1.74,1.74,0,0,1,11.64,125.65Z"/></g></g></svg>