<svg width="236" height="75" viewBox="0 0 236 75" fill="none" xmlns="http://www.w3.org/2000/svg">
<g clip-path="url(#clip0_1_2)">
<path d="M133.048 45.056H140.568V48H129.4V25.76H133.048V45.056ZM153.763 48.224C151.693 48.224 149.784 47.744 148.035 46.784C146.307 45.8027 144.931 44.448 143.907 42.72C142.904 40.9707 142.403 39.008 142.403 36.832C142.403 34.656 142.904 32.704 143.907 30.976C144.931 29.248 146.307 27.904 148.035 26.944C149.784 25.9627 151.693 25.472 153.763 25.472C155.853 25.472 157.763 25.9627 159.491 26.944C161.24 27.904 162.616 29.248 163.619 30.976C164.621 32.704 165.123 34.656 165.123 36.832C165.123 39.008 164.621 40.9707 163.619 42.72C162.616 44.448 161.24 45.8027 159.491 46.784C157.763 47.744 155.853 48.224 153.763 48.224ZM153.763 45.056C155.235 45.056 156.547 44.7253 157.699 44.064C158.851 43.3813 159.747 42.4213 160.387 41.184C161.048 39.9253 161.379 38.4747 161.379 36.832C161.379 35.1893 161.048 33.7493 160.387 32.512C159.747 31.2747 158.851 30.3253 157.699 29.664C156.547 29.0027 155.235 28.672 153.763 28.672C152.291 28.672 150.979 29.0027 149.827 29.664C148.675 30.3253 147.768 31.2747 147.107 32.512C146.467 33.7493 146.147 35.1893 146.147 36.832C146.147 38.4747 146.467 39.9253 147.107 41.184C147.768 42.4213 148.675 43.3813 149.827 44.064C150.979 44.7253 152.291 45.056 153.763 45.056ZM184.809 32.16C184.233 31.0507 183.433 30.2187 182.409 29.664C181.385 29.088 180.201 28.8 178.857 28.8C177.385 28.8 176.073 29.1307 174.921 29.792C173.769 30.4533 172.862 31.392 172.201 32.608C171.561 33.824 171.241 35.232 171.241 36.832C171.241 38.432 171.561 39.8507 172.201 41.088C172.862 42.304 173.769 43.2427 174.921 43.904C176.073 44.5653 177.385 44.896 178.857 44.896C180.841 44.896 182.451 44.3413 183.689 43.232C184.926 42.1227 185.683 40.6187 185.961 38.72H177.609V35.808H189.865V38.656C189.63 40.384 189.011 41.9733 188.009 43.424C187.027 44.8747 185.737 46.0373 184.137 46.912C182.558 47.7653 180.798 48.192 178.857 48.192C176.766 48.192 174.857 47.712 173.129 46.752C171.401 45.7707 170.025 44.416 169.001 42.688C167.998 40.96 167.497 39.008 167.497 36.832C167.497 34.656 167.998 32.704 169.001 30.976C170.025 29.248 171.401 27.904 173.129 26.944C174.878 25.9627 176.787 25.472 178.857 25.472C181.225 25.472 183.326 26.0587 185.161 27.232C187.017 28.384 188.361 30.0267 189.193 32.16H184.809ZM203.607 48.224C201.537 48.224 199.628 47.744 197.879 46.784C196.151 45.8027 194.775 44.448 193.751 42.72C192.748 40.9707 192.247 39.008 192.247 36.832C192.247 34.656 192.748 32.704 193.751 30.976C194.775 29.248 196.151 27.904 197.879 26.944C199.628 25.9627 201.537 25.472 203.607 25.472C205.697 25.472 207.607 25.9627 209.335 26.944C211.084 27.904 212.46 29.248 213.463 30.976C214.465 32.704 214.967 34.656 214.967 36.832C214.967 39.008 214.465 40.9707 213.463 42.72C212.46 44.448 211.084 45.8027 209.335 46.784C207.607 47.744 205.697 48.224 203.607 48.224ZM203.607 45.056C205.079 45.056 206.391 44.7253 207.543 44.064C208.695 43.3813 209.591 42.4213 210.231 41.184C210.892 39.9253 211.223 38.4747 211.223 36.832C211.223 35.1893 210.892 33.7493 210.231 32.512C209.591 31.2747 208.695 30.3253 207.543 29.664C206.391 29.0027 205.079 28.672 203.607 28.672C202.135 28.672 200.823 29.0027 199.671 29.664C198.519 30.3253 197.612 31.2747 196.951 32.512C196.311 33.7493 195.991 35.1893 195.991 36.832C195.991 38.4747 196.311 39.9253 196.951 41.184C197.612 42.4213 198.519 43.3813 199.671 44.064C200.823 44.7253 202.135 45.056 203.607 45.056Z" fill="white"/>
<path d="M89.8959 11.8959L75.3805 37.0373L60.8651 11.8959L89.8959 11.8959Z" fill="white"/>
<circle cx="95.0917" cy="47.2007" r="18.9725" transform="rotate(60 95.0917 47.2007)" fill="white"/>
<rect x="61.0271" y="26.1441" width="22.5807" height="22.5807" transform="rotate(60 61.0271 26.1441)" fill="white"/>
</g>
<defs>
<clipPath id="clip0_1_2">
<rect width="236" height="75" fill="white"/>
</clipPath>
</defs>
</svg>
