<svg xmlns="http://www.w3.org/2000/svg" viewBox="0 0 718.45 125.68"><defs><style>.cls-1,.cls-2{fill:#fff;}.cls-2{font-size:78.44px;font-family:Quicksand-Bold, Quicksand;font-weight:700;letter-spacing:-0.01em;}.cls-3{letter-spacing:0em;}</style></defs><g id="Layer_2" data-name="Layer 2"><g id="Capa_1" data-name="Capa 1"><rect class="cls-1" x="72.91" y="14.05" width="9.58" height="62.28" rx="3.07" transform="translate(-9.2 68.18) rotate(-45)"/><path class="cls-1" d="M120.11,46.82l-6.78,6.78a4.88,4.88,0,0,1-6.86,0,4.78,4.78,0,0,1,0-6.75l.06-.06a9.51,9.51,0,0,0,0-13.43L89.5,16.33a9.49,9.49,0,0,0-13.43,0h0A4.79,4.79,0,0,1,67.83,13a4.74,4.74,0,0,1,1.4-3.38l6.84-6.84a9.49,9.49,0,0,1,13.43,0l30.61,30.61A9.51,9.51,0,0,1,120.11,46.82Z"/><path class="cls-1" d="M32.87,107.28,45.55,80.5a1.75,1.75,0,0,0-2.33-2.33L16.45,90.86a.75.75,0,0,1-1-1L42.79,39.1a4.81,4.81,0,0,1,6.53-2h0a4.81,4.81,0,0,1,2,6.53L37.87,68.58a.73.73,0,0,0,1,1L60.33,59.39a3,3,0,0,1,4,4L54.14,84.9a.73.73,0,0,0,1,.95L80.05,72.44a4.83,4.83,0,0,1,6.54,2h0a4.84,4.84,0,0,1-2,6.54L33.89,108.25A.74.74,0,0,1,32.87,107.28Z"/><path class="cls-1" d="M9.25,99.86,23,113.64a1.38,1.38,0,0,1-.54,2.28L1.82,122.81a1.38,1.38,0,0,1-1.75-1.74L7,100.4A1.38,1.38,0,0,1,9.25,99.86Z"/><text class="cls-2" transform="translate(135.78 108.35)">W<tspan class="cls-3" x="73.27" y="0">as It Copied? </tspan></text></g></g></svg>