<svg xmlns="http://www.w3.org/2000/svg" viewBox="0 0 219.45 219.45"><defs><style>.cls-1{fill:#fff;}</style></defs><g id="Layer_2" data-name="Layer 2"><g id="Capa_1" data-name="Capa 1"><rect class="cls-1" x="130.2" y="25.08" width="17.11" height="111.22" rx="8.25" transform="translate(-16.42 121.75) rotate(-45)"/><path class="cls-1" d="M214.48,83.61l-12.1,12.1a8.69,8.69,0,0,1-12.25.06,8.55,8.55,0,0,1,.05-12l.1-.11a16.94,16.94,0,0,0,0-24L159.82,29.17a16.94,16.94,0,0,0-24,0h0a8.67,8.67,0,0,1-12.26.06,8.56,8.56,0,0,1,0-12.06L135.84,5a16.94,16.94,0,0,1,24,0l54.66,54.66A17,17,0,0,1,214.48,83.61Z"/><path class="cls-1" d="M58.69,191.57l22.65-47.81a3.12,3.12,0,0,0-4.15-4.16L29.37,162.25a1.34,1.34,0,0,1-1.75-1.84L76.4,69.82a8.62,8.62,0,0,1,11.68-3.5h0A8.61,8.61,0,0,1,91.58,78l-24,44.48a1.29,1.29,0,0,0,1.69,1.78l38.41-18.19a5.37,5.37,0,0,1,7.15,7.15L96.69,151.62a1.29,1.29,0,0,0,1.78,1.69L143,129.36a8.62,8.62,0,0,1,11.67,3.5h0a8.62,8.62,0,0,1-3.5,11.68L60.53,193.32A1.34,1.34,0,0,1,58.69,191.57Z"/><path class="cls-1" d="M16.52,178.32l24.61,24.61a2.47,2.47,0,0,1-1,4.08L3.25,219.32A2.47,2.47,0,0,1,.13,216.2l12.31-36.91A2.47,2.47,0,0,1,16.52,178.32Z"/></g></g></svg>